<svg xmlns="http://www.w3.org/2000/svg" xmlns:xlink="http://www.w3.org/1999/xlink" viewBox="0 0 242.72 160.89"><defs><style>.cls-1{fill:none;}.cls-2{fill:#d3d3d3;}.cls-3{fill:#fff;}.cls-4{fill:#eaa01c;}.cls-5{fill:#cc881b;}.cls-6{fill:#f7ce74;}.cls-7{clip-path:url(#clip-path);}.cls-8{fill:#ffd4c7;}.cls-9{fill:#cecece;opacity:0.35;}</style><clipPath id="clip-path" transform="translate(0 -0.43)"><rect class="cls-1" x="56.41" y="22.28" width="141.77" height="118.15" transform="translate(21.93 189.61) rotate(-78.36)"/></clipPath></defs><g id="圖層_2" data-name="圖層 2"><g id="圖層_1-2" data-name="圖層 1"><path d="M242.72,148.15a10.71,10.71,0,0,1-1,4.66c-.15.31-.31.62-.48.91s-.37.59-.57.86a10.85,10.85,0,0,1-3.67,3.19,10.58,10.58,0,0,1-4.85,1.24,9.5,9.5,0,0,1-1.31-.06,10.74,10.74,0,0,1-9.49-9.5c0-.32-.05-.67-.06-1L219.85,42.13a7,7,0,0,1,12.48-4.3l.25.32a44.65,44.65,0,0,1,5.4,9.26,44.18,44.18,0,0,1,3.6,16.88Zm-6.8,2.2a4.29,4.29,0,0,0,.5-2.1L236,115.37l-8.81.12.44,32.87a4.42,4.42,0,0,0,3.93,4.32l.54,0A4.45,4.45,0,0,0,235.92,150.35Zm0-41.28-.61-44.69A38.06,38.06,0,0,0,227.56,42l-.25-.32a.61.61,0,0,0-.4-.27.63.63,0,0,0-.32,0,.59.59,0,0,0-.44.62l.92,67.14Z" transform="translate(0 -0.43)"/><path class="cls-2" d="M236.42,148.25a4.29,4.29,0,0,1-.5,2.1,4.45,4.45,0,0,1-3.85,2.36l-.54,0a4.42,4.42,0,0,1-3.93-4.32l-.44-32.87,8.81-.12Z" transform="translate(0 -0.43)"/><path class="cls-3" d="M235.28,64.38l.61,44.69-8.82.12-.92-67.14a.59.59,0,0,1,.44-.62.63.63,0,0,1,.32,0,.61.61,0,0,1,.4.27l.25.32a38.06,38.06,0,0,1,7.72,22.41Z" transform="translate(0 -0.43)"/><path d="M34.12,39.61A3.16,3.16,0,0,1,37.05,43L35.41,66.44a13.78,13.78,0,0,1-9.82,12.29L22.9,148.46A11,11,0,0,1,12.54,159c-.45,0-.91,0-1.36,0h-.07A11,11,0,0,1,1,147a.08.08,0,0,0,0,0L8.05,77.52A13.81,13.81,0,0,1,0,64L1.68,40.5A3.15,3.15,0,0,1,8,41L6.32,64.4A7.54,7.54,0,0,0,12,72.24l2.1.13,2.16-30.85a3.15,3.15,0,1,1,6.29.44L20.36,72.82l2.09.14a7.5,7.5,0,0,0,6.67-7l1.63-23.45A3.17,3.17,0,0,1,34.12,39.61ZM16.6,148.21l2.67-69.15-2.5-.17-2.5-.18-7,68.9a4.67,4.67,0,0,0,4.32,5.08h.06a4.67,4.67,0,0,0,5-4.49Z" transform="translate(0 -0.43)"/><path class="cls-2" d="M19.27,79.06,16.6,148.21a4.67,4.67,0,0,1-5,4.49h-.06a4.67,4.67,0,0,1-4.32-5.08l7-68.9,2.5.18Z" transform="translate(0 -0.43)"/><path class="cls-3" d="M177.29,22.54,84.78,3,82.5,16.11s-.4,6.76.73,9.08,1.93,6.13-.8,12.38S72.57,64.33,70.66,97H88.75l43.67-27.83,38.26-13.74,7.2-31.91Z" transform="translate(0 -0.43)"/><path class="cls-4" d="M189.07,35.52l4.38.9,1.91-9.26-20.83-4.29a19.22,19.22,0,0,0-7.69,10,24.77,24.77,0,0,1-8.55,12.16,46.46,46.46,0,0,1-13,7.54c-5.07,1.76-10.37,2.76-15.39,4.67-9.78,3.71-18.33,11-25.39,18.56a104.69,104.69,0,0,1-8.16,7.46,38.42,38.42,0,0,1-8.88,6.13,18.89,18.89,0,0,1-9.41,1.87,22.48,22.48,0,0,1-4.11-1c-.61-.16-2.42-.68-2.53.38-2.9,28.6-9.79,38.08-13.86,43.24l-1,4.63,106.46,21.94,1-4.63a44.79,44.79,0,0,1-.59-20.56l2-9.81A576.67,576.67,0,0,1,182.9,60.32a19.22,19.22,0,0,1,7.69-10l.95-4.62-4.63-1a4.73,4.73,0,0,1-3.45-6.35A4.89,4.89,0,0,1,189.07,35.52Z" transform="translate(0 -0.43)"/><path class="cls-5" d="M177.88,76.21s-15.48,38.08-30.92,51c-15.19,12.69-35.74,19.86-47.7,17.62l64.62,14.24,1.29-3.65s.62-3.81-1.06-13S177.88,76.21,177.88,76.21Z" transform="translate(0 -0.43)"/><path class="cls-6" d="M189.24,34.65l4.39.91,1.9-9.26L174.7,22a19.19,19.19,0,0,0-7,8.21L82.54,12.67,81.4,18.22a12.48,12.48,0,0,0,.65,7.2,11.72,11.72,0,0,1,.52,1.72l108.19,22.3,1-4.63-4.63-1a4.73,4.73,0,0,1-3.45-6.35,4.9,4.9,0,0,1,5.6-2.86Z" transform="translate(0 -0.43)"/><path d="M172.91,47.32,94.23,31.11a2.36,2.36,0,1,1,1-4.63l78.69,16.21a2.36,2.36,0,0,1-1,4.63Z" transform="translate(0 -0.43)"/><path d="M164.2,31.05,104,18.65A2.36,2.36,0,1,1,105,14l60.18,12.39a2.36,2.36,0,0,1-1,4.63Z" transform="translate(0 -0.43)"/><g class="cls-7"><path d="M163.91,161.27,57.45,139.33a2.36,2.36,0,0,1-1.84-2.79l1-4.63a2.43,2.43,0,0,1,.45-1,42.65,42.65,0,0,0,8-16.64,2.37,2.37,0,0,1,4.61,1.07,47.5,47.5,0,0,1-8.52,18l-.36,1.77,101.83,21,.36-1.78a47.52,47.52,0,0,1-.48-21.09l2-9.82c2.63-12.79,5.92-26.21,9.76-39.87A2.4,2.4,0,0,1,177.14,82a2.36,2.36,0,0,1,1.63,2.92c-3.81,13.56-7.07,26.86-9.68,39.54l-2,9.81a42.74,42.74,0,0,0,.57,19.48,2.32,2.32,0,0,1,0,1.08l-1,4.63a2.36,2.36,0,0,1-2.79,1.84Z" transform="translate(0 -0.43)"/><path d="M65.93,115c-1.26-.26-1.18.52-.94-.75,1.33-6.85,4.16-22.94,4.72-29.89A191.43,191.43,0,0,1,81.1,32.82a9.86,9.86,0,0,0-.1-7.13,14.69,14.69,0,0,1-.78-8.57l3-14.81A2.36,2.36,0,0,1,86.06.48L197.15,23.37A2.36,2.36,0,0,1,199,26.16l-1.91,9.26a2.36,2.36,0,0,1-2.79,1.83l-4.38-.9A2.57,2.57,0,0,0,187,37.74a2.37,2.37,0,0,0,1.73,3.19l4.62,1a2.36,2.36,0,0,1,1.84,2.79l-.95,4.63a2.39,2.39,0,0,1-1,1.5,16.94,16.94,0,0,0-6.74,8.79c-1.76,5.28-6.16,20.2-7.8,25.68-.17.61-2.1-.93-2.65-.62s-.21,0-.82-.17-1.39.63-1.22,0c.25-.89,2.65-9.44,2.85-10,1.65-5.53,3.39-11,5.15-16.36a21.7,21.7,0,0,1,7.81-10.68l.29-1.39-2.32-.47A7.1,7.1,0,0,1,182.57,36a7.3,7.3,0,0,1,8.29-4.32l2.07.43.95-4.63L87.42,5.58l-2.57,12.5a10.06,10.06,0,0,0,.53,5.84,14.5,14.5,0,0,1,.15,10.55,186.61,186.61,0,0,0-11.11,50.3c-.57,7.13-3.63,24.26-5,31.28-.25,1.28-.32-3.28-1.6-3.53Z" transform="translate(0 -0.43)"/></g><rect class="cls-1" x="88.56" y="58.41" width="64.25" height="63.24" transform="translate(8.15 189.63) rotate(-78.36)"/><path d="M146.67,83.46A20.06,20.06,0,0,1,142,113.11L137.47,116a22.29,22.29,0,0,1-22.89.71,9.8,9.8,0,0,0-6.9-1l-8.29,1.87a9.25,9.25,0,0,1-3.85,0c-1.32-.27-1.63-.5-6.56-2.73a7.13,7.13,0,0,1-1.22-12.3l25.8-18.42c-.07-.12-.15-.24-.23-.36a7.07,7.07,0,0,0-4-3.06L103,78.94a7.56,7.56,0,0,1-3.9-2.71l-2.36-3.17a6,6,0,0,1,4.1-9.48l30-3.43A15.93,15.93,0,0,1,146.67,83.46Zm-6.78,26.3a16.07,16.07,0,1,0-18-26.61l-31.8,22.71a3.15,3.15,0,0,0,.54,5.44l4.67,2.11a5.16,5.16,0,0,0,3.24.33l8.29-1.86a13.66,13.66,0,0,1,9.7,1.4,18.35,18.35,0,0,0,18.82-.59Zm3.8-29.24A12,12,0,0,0,131.26,64.1l-30,3.43a2,2,0,0,0-1.37,3.15c2.47,3.31,2.75,4,4.2,4.45L110.42,77a11,11,0,0,1,6.38,4.92l2.76-2A20.07,20.07,0,0,1,143.69,80.52Z" transform="translate(0 -0.43)"/><path class="cls-8" d="M144,86.46a16.07,16.07,0,0,1-4.1,23.3l-4.56,2.93a18.35,18.35,0,0,1-18.82.59,13.66,13.66,0,0,0-9.7-1.4l-8.29,1.86a5.16,5.16,0,0,1-3.24-.33l-4.67-2.11a3.15,3.15,0,0,1-.54-5.44l31.8-22.71A16.08,16.08,0,0,1,144,86.46Z" transform="translate(0 -0.43)"/><path class="cls-8" d="M131.26,64.1a12,12,0,0,1,12.43,16.42,20.07,20.07,0,0,0-24.13-.61l-2.76,2A11,11,0,0,0,110.42,77l-6.29-1.84c-1.45-.43-1.73-1.14-4.2-4.45a2,2,0,0,1,1.37-3.15Z" transform="translate(0 -0.43)"/><path d="M128.46,99.42l-11.31-2.33a2,2,0,1,0-.81,3.89l11.32,2.33a2,2,0,1,0,.8-3.89Z" transform="translate(0 -0.43)"/><path d="M134.82,88.83l-4-.82a2,2,0,1,0-.8,3.89l4,.83a2,2,0,0,0,.81-3.9Z" transform="translate(0 -0.43)"/><path class="cls-9" d="M144.35,139.12l-60.18-12.4a9.45,9.45,0,0,1-7.35-11.16l.79-3.8q1.24-6.08,2.91-12.07L84.05,87a195.3,195.3,0,0,0,5.89-30.31l.45-3.94A11.92,11.92,0,0,1,106.62,43l15.73,6.25a73.91,73.91,0,0,0,36,4.68,9,9,0,0,1,9.33,12.41,94.17,94.17,0,0,0-7.39,33.11l-.14,3.71a94.13,94.13,0,0,1-1.87,15.42l-2.72,13.19a9.44,9.44,0,0,1-11.16,7.35Z" transform="translate(0 -0.43)"/><path d="M143.86,141.48l-60.17-12.4a11.82,11.82,0,0,1-9.19-14l.78-3.8c.85-4.09,1.84-8.2,3-12.22L81.77,86.4a193.15,193.15,0,0,0,4.3-19.47,2.37,2.37,0,0,1,4.26-1,2.32,2.32,0,0,1,.4,1.77,199.15,199.15,0,0,1-4.41,19.94l-3.53,12.71c-1.09,3.94-2.06,7.93-2.88,11.91l-.78,3.8a7.09,7.09,0,0,0,5.51,8.38l60.17,12.39a7.09,7.09,0,0,0,8.38-5.51l2.71-13.19a92.54,92.54,0,0,0,1.83-15l.14-3.71a95.89,95.89,0,0,1,7.57-33.95,6.61,6.61,0,0,0-6.87-9.14,76.39,76.39,0,0,1-37.1-4.84l-15.73-6.24a9.55,9.55,0,0,0-13,7.8l-.61,5.2a2.39,2.39,0,0,1-.88,1.59,2.38,2.38,0,0,1-3.34-.4,2.4,2.4,0,0,1-.47-1.76L88,52.52a14.18,14.18,0,0,1,8.1-11.31,14.35,14.35,0,0,1,11.35-.35l15.73,6.24A71.66,71.66,0,0,0,158,51.63a11.34,11.34,0,0,1,11.78,15.68,91.51,91.51,0,0,0-7.2,32.28l-.14,3.71a95.38,95.38,0,0,1-1.92,15.8l-2.71,13.2a11.83,11.83,0,0,1-14,9.18Z" transform="translate(0 -0.43)"/></g></g></svg>