<svg xmlns="http://www.w3.org/2000/svg" viewBox="0 0 199.2 117.72"><defs><style>.cls-1{fill:#ed5565;}.cls-2{fill:#656d78;}.cls-3{fill:#ffce54;}</style></defs><g id="圖層_2" data-name="圖層 2"><g id="圖層_1-2" data-name="圖層 1"><path class="cls-1" d="M189.25,43.16a6.64,6.64,0,0,1,0,13.28H132.8V43.16Z"/><path class="cls-2" d="M132.8,43.16V56.44a19.93,19.93,0,0,1-19.93,19.93H26.54A19.92,19.92,0,0,1,6.62,56.44V39.84H132.8Z"/><path class="cls-3" d="M132.8,109.57H99.59V96.29a10,10,0,0,0,10-10,23.23,23.23,0,0,1,23.25,23.24Z"/><path class="cls-3" d="M89.63,109.57H56.42V96.29a10,10,0,0,0,10-10,23.22,23.22,0,0,1,23.24,23.24Z"/><path class="cls-3" d="M46.5,109.57H13.29V96.29a10,10,0,0,0,10-10A23.23,23.23,0,0,1,46.5,109.57Z"/><path d="M46.49,112.89a3.32,3.32,0,0,1-3.32-3.32A19.93,19.93,0,0,0,23.25,89.65a3.32,3.32,0,0,1,0-6.64,26.58,26.58,0,0,1,26.56,26.56,3.31,3.31,0,0,1-3.32,3.32Z"/><path d="M13.29,99.61a3.32,3.32,0,1,1,0-6.64,6.65,6.65,0,0,0,6.64-6.64,3.32,3.32,0,0,1,6.64,0A13.3,13.3,0,0,1,13.29,99.61Z"/><path d="M13.29,112.89A3.31,3.31,0,0,1,10,109.57V96.29a3.32,3.32,0,1,1,6.64,0v13.28a3.32,3.32,0,0,1-3.32,3.32Z"/><path d="M89.65,112.89a3.31,3.31,0,0,1-3.32-3.32A19.94,19.94,0,0,0,66.4,89.65a3.32,3.32,0,0,1,0-6.64A26.59,26.59,0,0,1,93,109.57a3.32,3.32,0,0,1-3.32,3.32Z"/><path d="M56.44,99.61a3.32,3.32,0,0,1,0-6.64,6.65,6.65,0,0,0,6.64-6.64,3.32,3.32,0,1,1,6.64,0A13.29,13.29,0,0,1,56.44,99.61Z"/><path d="M56.44,112.89a3.31,3.31,0,0,1-3.32-3.32V96.29a3.32,3.32,0,1,1,6.64,0v13.28a3.31,3.31,0,0,1-3.32,3.32Z"/><path d="M132.79,112.89a3.31,3.31,0,0,1-3.32-3.32,19.94,19.94,0,0,0-19.93-19.92,3.32,3.32,0,0,1,0-6.64,26.59,26.59,0,0,1,26.57,26.56,3.32,3.32,0,0,1-3.32,3.32Z"/><path d="M99.58,99.61a3.32,3.32,0,0,1,0-6.64,6.64,6.64,0,0,0,6.64-6.64,3.32,3.32,0,1,1,6.64,0A13.29,13.29,0,0,1,99.58,99.61Z"/><path d="M99.58,112.89a3.32,3.32,0,0,1-3.32-3.32V96.29a3.32,3.32,0,1,1,6.64,0v13.28a3.31,3.31,0,0,1-3.32,3.32Z"/><path d="M26.55,79.7A23.27,23.27,0,0,1,3.31,56.46a3.32,3.32,0,1,1,6.64,0,16.62,16.62,0,0,0,16.6,16.6,3.32,3.32,0,1,1,0,6.64Z"/><path d="M112.88,79.69a3.32,3.32,0,0,1,0-6.64,16.63,16.63,0,0,0,16.61-16.6,3.32,3.32,0,1,1,6.64,0,23.27,23.27,0,0,1-23.25,23.24Z"/><path d="M112.88,79.7H26.55a3.32,3.32,0,1,1,0-6.64h86.33a3.32,3.32,0,1,1,0,6.64Z"/><path d="M132.81,59.77a3.32,3.32,0,0,1-3.32-3.32V39.84a3.32,3.32,0,0,1,6.64,0V56.45a3.32,3.32,0,0,1-3.32,3.32Z"/><path d="M6.63,59.78a3.32,3.32,0,0,1-3.32-3.32V39.84a3.32,3.32,0,0,1,6.64,0V56.46a3.32,3.32,0,0,1-3.32,3.32Z"/><path d="M132.81,43.16H6.63a3.32,3.32,0,0,1,0-6.64H132.81a3.32,3.32,0,0,1,0,6.64Z"/><path d="M189.24,59.77a3.32,3.32,0,0,1,0-6.64,3.33,3.33,0,0,0,0-6.65,3.32,3.32,0,0,1,0-6.64,10,10,0,0,1,0,19.93Z"/><path d="M189.24,59.77H132.81a3.32,3.32,0,1,1,0-6.64h56.43a3.32,3.32,0,0,1,0,6.64Z"/><path d="M189.24,46.48H132.81a3.32,3.32,0,1,1,0-6.64h56.43a3.32,3.32,0,0,1,0,6.64Z"/><path d="M142.7,117.72H3.32C1.48,117.72,0,115.15,0,112s1.48-5.74,3.32-5.74H142.71c1.83,0,3.32,2.56,3.32,5.74s-1.49,5.73-3.33,5.73Z"/><path d="M19.91,33.21a3.32,3.32,0,0,1-3.32-3.33V3.32a3.32,3.32,0,0,1,6.64,0V29.88a3.33,3.33,0,0,1-3.32,3.33Z"/><path d="M36.51,33.21a3.32,3.32,0,0,1-3.32-3.33V13.3a3.32,3.32,0,1,1,6.64,0V29.88a3.33,3.33,0,0,1-3.32,3.33Z"/><path d="M53.11,33.21a3.33,3.33,0,0,1-3.32-3.33V3.32a3.32,3.32,0,1,1,6.64,0V29.88a3.32,3.32,0,0,1-3.32,3.33Z"/><path d="M69.71,33.21a3.33,3.33,0,0,1-3.32-3.33V13.3a3.32,3.32,0,1,1,6.64,0V29.88a3.32,3.32,0,0,1-3.32,3.33Z"/><path d="M86.32,33.21A3.32,3.32,0,0,1,83,29.88V3.32a3.32,3.32,0,0,1,6.64,0V29.88a3.33,3.33,0,0,1-3.32,3.33Z"/><path d="M102.92,33.21a3.32,3.32,0,0,1-3.32-3.33V13.3a3.32,3.32,0,1,1,6.64,0V29.88a3.33,3.33,0,0,1-3.32,3.33Z"/><path d="M119.52,33.21a3.33,3.33,0,0,1-3.32-3.33V3.32a3.32,3.32,0,0,1,6.64,0V29.88a3.32,3.32,0,0,1-3.32,3.33Z"/></g></g></svg>