<svg xmlns="http://www.w3.org/2000/svg" viewBox="0 0 176.47 138.66"><defs><style>.cls-1{fill:#afb6bb;}.cls-2{fill:#31c0d8;}.cls-3{fill:#e7eced;}.cls-4{fill:#858c90;}.cls-5{fill:#231f20;}</style></defs><g id="圖層_2" data-name="圖層 2"><g id="圖層_1-2" data-name="圖層 1"><rect class="cls-1" x="19.81" y="120.65" width="14.41" height="14.41"/><rect class="cls-1" x="142.26" y="120.65" width="14.41" height="14.41"/><rect class="cls-2" x="144.06" y="39.62" width="18.01" height="12.61"/><path class="cls-3" d="M144.06,39.62v12.6h18V39.62Zm28.81-10.81v88.24a3.61,3.61,0,0,1-3.6,3.6h-36V28.81Z"/><path class="cls-4" d="M172.87,7.2V28.81H133.25V3.6h36a3.61,3.61,0,0,1,3.6,3.6Z"/><path class="cls-1" d="M133.25,28.81v91.84H7.2a3.61,3.61,0,0,1-3.6-3.6V7.2A3.61,3.61,0,0,1,7.2,3.6H133.25ZM120.65,108V16.21H16.21V108Z"/><rect class="cls-2" x="16.21" y="16.21" width="104.44" height="91.84"/><path class="cls-5" d="M169.27,0H7.2A7.21,7.21,0,0,0,0,7.2V117.05a7.21,7.21,0,0,0,7.2,7.2h9v10.8a3.61,3.61,0,0,0,3.6,3.61h14.4a3.61,3.61,0,0,0,3.61-3.61v-10.8H138.66v10.8a3.61,3.61,0,0,0,3.6,3.61h14.4a3.61,3.61,0,0,0,3.6-3.61v-10.8h9a7.21,7.21,0,0,0,7.2-7.2V7.2a7.21,7.21,0,0,0-7.2-7.2Zm0,25.21H136.86V7.2h32.41ZM30.61,131.45h-7.2v-7.2h7.2ZM7.2,117.05V7.2H129.65V117.05Zm145.86,14.4h-7.2v-7.2h7.2Zm-16.2-14.4V32.41h32.41v84.64Z"/><path class="cls-5" d="M124.25,108V16.21a3.6,3.6,0,0,0-3.6-3.6H16.21a3.6,3.6,0,0,0-3.6,3.6V108a3.6,3.6,0,0,0,3.6,3.6H120.65a3.6,3.6,0,0,0,3.6-3.6Zm-7.2-3.6H19.81V19.81h97.24Z"/><rect class="cls-5" x="142.26" y="12.61" width="9" height="7.2"/><rect class="cls-5" x="156.66" y="12.61" width="7.2" height="7.2"/><rect class="cls-5" x="149.46" y="61.22" width="7.2" height="7.2"/><rect class="cls-5" x="140.46" y="61.22" width="7.2" height="7.2"/><rect class="cls-5" x="158.46" y="61.22" width="7.2" height="7.2"/><rect class="cls-5" x="149.46" y="72.03" width="7.2" height="7.2"/><rect class="cls-5" x="140.46" y="72.03" width="7.2" height="7.2"/><rect class="cls-5" x="158.46" y="72.03" width="7.2" height="7.2"/><rect class="cls-5" x="149.46" y="82.83" width="7.2" height="7.2"/><rect class="cls-5" x="140.46" y="82.83" width="7.2" height="7.2"/><rect class="cls-5" x="158.46" y="82.83" width="7.2" height="7.2"/><rect class="cls-5" x="149.46" y="93.64" width="7.2" height="7.2"/><rect class="cls-5" x="149.46" y="104.44" width="7.2" height="7.2"/><rect class="cls-5" x="140.46" y="93.64" width="7.2" height="7.2"/><rect class="cls-5" x="158.46" y="93.64" width="7.2" height="7.2"/><path class="cls-5" d="M162.07,36h-18a3.61,3.61,0,0,0-3.6,3.61v12.6a3.6,3.6,0,0,0,3.6,3.6h18a3.6,3.6,0,0,0,3.6-3.6V39.62a3.61,3.61,0,0,0-3.6-3.61Zm-3.61,12.61h-10.8v-5.4h10.8Z"/><path class="cls-5" d="M32.41,32.41h9v-7.2H28.81a3.6,3.6,0,0,0-3.6,3.6V63h7.2Z"/><rect class="cls-5" x="25.21" y="68.43" width="7.2" height="7.2"/></g></g></svg>