<svg xmlns="http://www.w3.org/2000/svg" viewBox="0 0 43.29 43.29"><defs><style>.cls-1{fill:#f8b62d;}.cls-2{fill:none;stroke:#f8b62d;stroke-miterlimit:10;stroke-width:2px;}</style></defs><g id="圖層_2" data-name="圖層 2"><g id="圖層_1-2" data-name="圖層 1"><path class="cls-1" d="M37.15,20.86H34.6l.65-1.12a.81.81,0,0,0,.08-.61.78.78,0,0,0-.36-.47.79.79,0,0,0-1.08.29l-1.1,1.91H31.18l2.14-3.7A.79.79,0,1,0,32,16.37l-2.59,4.49H25.3l-1.14-2,2-3.52h5.18a.79.79,0,1,0,0-1.57H27.09l.8-1.38H30.1a.79.79,0,1,0,0-1.58H28.8l1.28-2.21a.8.8,0,0,0-.29-1.07.74.74,0,0,0-.6-.08.73.73,0,0,0-.47.37L27.44,10l-.65-1.13a.81.81,0,0,0-1.08-.29.78.78,0,0,0-.28,1.07l1.1,1.92L25.73,13l-2.14-3.7a.79.79,0,1,0-1.36.79l2.6,4.49-2,3.52h-2.3l-2-3.52,2.6-4.49a.79.79,0,0,0-1.37-.79L17.56,13l-.8-1.38,1.11-1.92a.79.79,0,0,0-.3-1.07.78.78,0,0,0-1.07.29L15.85,10,14.57,7.82a.79.79,0,0,0-1.36.79l1.28,2.21h-1.3a.79.79,0,0,0,0,1.58H15.4l.8,1.38H11.92a.79.79,0,1,0,0,1.57H17.1l2,3.52-1.14,2H13.92l-2.59-4.49a.8.8,0,0,0-1.08-.29A.8.8,0,0,0,10,17.16l2.14,3.7h-1.6L9.4,19A.78.78,0,1,0,8,19.73l.65,1.13H6.14a.79.79,0,0,0,0,1.57H8.69L8,23.56a.8.8,0,0,0,.29,1.08.82.82,0,0,0,1.08-.29l1.1-1.92h1.6L10,26.14a.78.78,0,0,0-.07.6.74.74,0,0,0,.36.47.8.8,0,0,0,1.07-.29l2.6-4.49H18l1.15,2-2,3.52H11.93a.79.79,0,1,0,0,1.57H16.2l-.8,1.39H13.19a.79.79,0,1,0,0,1.57h1.3l-1.28,2.21a.8.8,0,0,0,.3,1.08.82.82,0,0,0,1.07-.3l1.27-2.2.65,1.12a.8.8,0,0,0,1.08.29.78.78,0,0,0,.29-1.07l-1.11-1.92.8-1.38L19.7,34a.79.79,0,0,0,.68.39.71.71,0,0,0,.39-.1.78.78,0,0,0,.37-.48.76.76,0,0,0-.08-.59l-2.59-4.49,2-3.52h2.3l2,3.52-2.6,4.49a.78.78,0,0,0-.07.6.76.76,0,0,0,.36.46A.8.8,0,0,0,23.6,34l2.14-3.7.8,1.38L25.43,33.6a.79.79,0,0,0,.29,1.07.81.81,0,0,0,1.08-.29l.65-1.12,1.27,2.2a.78.78,0,0,0,1.08.29.74.74,0,0,0,.36-.47.78.78,0,0,0-.07-.6l-1.28-2.21h1.3a.79.79,0,1,0,0-1.57H27.9l-.8-1.39h4.28a.79.79,0,1,0,0-1.57H26.2l-2-3.52,1.15-2h4.07L32,26.92a.8.8,0,0,0,1.07.29.78.78,0,0,0,.29-1.07l-2.14-3.71h1.6l1.1,1.92a.79.79,0,0,0,.69.39.84.84,0,0,0,.39-.1.81.81,0,0,0,.29-1.08l-.65-1.13h2.55a.78.78,0,0,0,.78-.79A.8.8,0,0,0,37.15,20.86Zm-13.21.79-1.14,2H20.5l-1.15-2,1.15-2h2.3Z"/><circle class="cls-2" cx="21.65" cy="21.65" r="20.65"/></g></g></svg>