<svg xmlns="http://www.w3.org/2000/svg" viewBox="0 0 43.29 43.29"><defs><style>.cls-1{fill:#f8b62d;}.cls-2{fill:none;stroke:#f8b62d;stroke-miterlimit:10;stroke-width:2px;}</style></defs><g id="圖層_2" data-name="圖層 2"><g id="圖層_1-2" data-name="圖層 1"><path class="cls-1" d="M20,38.09l-.26,0a1.72,1.72,0,0,1-1.25-1.17c-.15-.51-.05-1.07-.17-1.59-.22-1-1.16-1.62-1.94-2.28a9.79,9.79,0,0,1-3.34-6.54,13.75,13.75,0,0,1,2.06-7.78c1.34-2.37,3.08-4.48,4.65-6.71a11.28,11.28,0,0,1,2.65-3c.77-.52,1.65-.82,2.44-1.3a4,4,0,0,0,1-.81,2.11,2.11,0,0,0,.33-.54c.06-.17.22-.23.42-.28s.38.13.53.29a10.45,10.45,0,0,0,.82.81A10.07,10.07,0,0,0,29.81,8.4a5.48,5.48,0,0,1,1.12.68,1.34,1.34,0,0,1,.5,1.16c-.08.49-.51.83-.8,1.23-.87,1.25-.27,3-.72,4.47a22.35,22.35,0,0,1-1.57,2.77,11.64,11.64,0,0,0-.76,3.42,16.48,16.48,0,0,1-3.44,8.08c-.88,1.07-2,2.1-2.21,3.47s.34,2.83-.52,3.82A1.75,1.75,0,0,1,20,38.09ZM26.8,8.4a5.46,5.46,0,0,1-2.38,1.34c-.87.31-1.42.52-1.72,1a22.82,22.82,0,0,1-2,2.75,22,22,0,0,0-1.65,2.19c-.38.61-.8,1.21-1.21,1.78a16.18,16.18,0,0,0-2.43,4.29c-.75,2.46-1.35,5.06.21,7.55.17.28.32.56.48.83a4,4,0,0,0,1.81,2.06A3.77,3.77,0,0,1,20,35.36,4.94,4.94,0,0,1,20,36c0,.12,0,.3,0,.42h.11l.1,0s.13-.19.06-1a6.29,6.29,0,0,1,1.58-5.1A15.52,15.52,0,0,0,26,22.13h0c.1-.46.16-1,.23-1.53.17-1.41.35-2.86,1.3-3.72s.91-1.86,1-3.08a5.27,5.27,0,0,1,1.11-3.71,4.55,4.55,0,0,0-1.2-.73A7.62,7.62,0,0,1,26.8,8.4Z"/><circle class="cls-2" cx="21.65" cy="21.65" r="20.65"/></g></g></svg>