<svg xmlns="http://www.w3.org/2000/svg" viewBox="0 0 43.29 43.29"><defs><style>.cls-1{fill:#f8b62d;}.cls-2{fill:none;stroke:#f8b62d;stroke-miterlimit:10;stroke-width:2px;}</style></defs><g id="圖層_2" data-name="圖層 2"><g id="圖層_1-2" data-name="圖層 1"><path class="cls-1" d="M34,16.76a6.83,6.83,0,0,0-8.66-8.41L13,12.38a2.55,2.55,0,0,0-.89,4.33l1.26,1.13a3.25,3.25,0,0,0,1.87.8l2.8.23A3,3,0,0,1,20,19.8a1.59,1.59,0,0,0,.13.13l-9.23,10a3,3,0,0,0,1.57,5,14.11,14.11,0,0,0,3,.58,3.93,3.93,0,0,0,1.62-.35l3.31-1.5a4.26,4.26,0,0,1,3-.18,9.52,9.52,0,0,0,9.54-2.27l1.66-1.62A8.59,8.59,0,0,0,34,16.76Zm-15.76.41-2.8-.23c-.64-.05-.82-.32-2.14-1.5a.85.85,0,0,1,.3-1.44l12.27-4a5.13,5.13,0,0,1,6.63,5.82A8.57,8.57,0,0,0,22.3,17.62l-1,1.06a4.77,4.77,0,0,0-3.1-1.51ZM33.4,28.38,31.74,30a7.85,7.85,0,0,1-7.84,1.87,5.94,5.94,0,0,0-4.19.25l-3.31,1.5a2.15,2.15,0,0,1-1.39.14l-2.14-.48a1.34,1.34,0,0,1-.7-2.23L23.55,18.77a6.88,6.88,0,1,1,9.85,9.61Z"/><path class="cls-1" d="M27.72,25H22.77a.85.85,0,0,0,0,1.7h4.95a.85.85,0,0,0,0-1.7Z"/><path class="cls-1" d="M29.46,20H27.72a.85.85,0,0,0,0,1.7h1.74a.85.85,0,1,0,0-1.7Z"/><circle class="cls-2" cx="21.65" cy="21.65" r="20.65"/></g></g></svg>