<svg xmlns="http://www.w3.org/2000/svg" viewBox="0 0 43.29 43.29"><defs><style>.cls-1{fill:#f8b62d;}.cls-2{fill:none;stroke:#f8b62d;stroke-miterlimit:10;stroke-width:2px;}</style></defs><g id="圖層_2" data-name="圖層 2"><g id="圖層_1-2" data-name="圖層 1"><path class="cls-1" d="M25.66,19.37V12.44a3,3,0,0,0-1-5.85h-6a3,3,0,0,0-1,5.85v6.93c-2.16,3.73-5,8.78-6.55,11.29l0,0a4.12,4.12,0,0,0-.53,2,4,4,0,0,0,4,4H28.74a4,4,0,0,0,3.48-6Zm-6.15.77a1,1,0,0,0,.13-.5v-8a1,1,0,0,0-1-1,1,1,0,0,1,0-2h6a1,1,0,0,1,0,2,1,1,0,0,0-1,1v8a1,1,0,0,0,.13.5l2.62,4.52H16.92Zm9.23,14.55H14.56a2,2,0,0,1-1.75-3c1.35-2.2,2.68-4.57,3-5h11.8l2.91,5a2,2,0,0,1,.27,1,2,2,0,0,1-2,2Z"/><circle class="cls-2" cx="21.65" cy="21.65" r="20.65"/></g></g></svg>