<svg xmlns="http://www.w3.org/2000/svg" viewBox="0 0 36.07 35.61"><defs><style>.cls-1{fill:#4c4948;}</style></defs><g id="圖層_2" data-name="圖層 2"><g id="圖層_1-2" data-name="圖層 1"><path class="cls-1" d="M32.12,7.13a4.63,4.63,0,0,0-4-3.89A3.47,3.47,0,0,0,26.57.79a3.56,3.56,0,0,0-3.28.15A4.06,4.06,0,0,0,19.91.68a3.56,3.56,0,0,0-2,2.74l-.11,0c-.43-1-1.64-3.15-4.15-3.15h-.14a2.4,2.4,0,0,0-1.62.85,2.54,2.54,0,0,0-.59,1c-1.59-.62-2.9-.37-3.73.75l-.24.36a3.6,3.6,0,0,0-2.6.29A4.22,4.22,0,0,0,2.45,7.94V8c0,.17,0,.32,0,.44l-.28.07a2.62,2.62,0,0,0-1.88,1.8,3.59,3.59,0,0,0,.73,2.75,5.76,5.76,0,0,0,1.1,1.18A2.88,2.88,0,0,0,.71,16a3.81,3.81,0,0,0,.6,3,5,5,0,0,0,.93,1.11l-.07.1a3.41,3.41,0,0,0-.36.86c-.67,2.57,1.66,4.47,4.08,5.39a17.27,17.27,0,0,0,2.7.76,5,5,0,0,0,1.8.59l.12.23c1,1.88,2.71,5,8.71,7a5.51,5.51,0,0,0,1.48.23,3.09,3.09,0,0,0,3.08-2.49l0-.09A3.05,3.05,0,0,0,23.45,31a3.17,3.17,0,0,1-.2-.51l0-.09c-.63-2.22-1.07-6.16,3-7.63a10.59,10.59,0,0,1,5.31-.5l.69.1v-.7A5.09,5.09,0,0,0,31.06,18a5.27,5.27,0,0,0,4.54-4.34C36.61,9.48,33.18,7.61,32.12,7.13ZM6.32,25.36c-1.93-.73-3.82-2.16-3.35-4a1.87,1.87,0,0,1,.23-.52c.22-.34.41-.54.36-1s-.41-.55-.65-.79a3.39,3.39,0,0,1-.58-.72,2.85,2.85,0,0,1-.52-1.87,1.68,1.68,0,0,1,.67-1.06,1.48,1.48,0,0,1,.6-.27c.17,0,.48,0,.6-.17l.54-.74-.89-.63a5.29,5.29,0,0,1-1.28-1.26,2.63,2.63,0,0,1-.54-1.82c.11-.54.79-.81,1.07-.9a4.09,4.09,0,0,1,.67-.12l.48,0,0-.47V9l0-.24s0-.13-.06-.81l0-.2a3,3,0,0,1,1.66-3,2.46,2.46,0,0,1,1.6-.26A6.32,6.32,0,0,0,7.1,7.93a4.77,4.77,0,0,0-1.66,2.61,6.23,6.23,0,0,0,.91,4.61A4.47,4.47,0,0,0,5,20.65a8.16,8.16,0,0,0,1.94,2.6,4.09,4.09,0,0,0,.25,2.39C6.85,25.56,6.58,25.46,6.32,25.36Zm5.25,2.14-.15-.31h0L11.29,27l-.15-.27-.31,0a3.07,3.07,0,0,1-2.4-1.17,2.91,2.91,0,0,1-.3-2.3l.11-.37L8,22.59a6.94,6.94,0,0,1-1.9-2.42,3.28,3.28,0,0,1,1.42-4.35L8,15.5,7.65,15A5.49,5.49,0,0,1,6.6,10.82,3.65,3.65,0,0,1,8.1,8.68l.45-.26L8.37,8c-.66-1.82-.6-3.27.18-4.31a1.39,1.39,0,0,1,1.19-.59,4,4,0,0,1,1.78.55l1,.55L12.41,3a1.42,1.42,0,0,1,.37-1.09,1.38,1.38,0,0,1,.76-.45h.11a3.52,3.52,0,0,1,3,2.38,3.86,3.86,0,0,0-1.07.85,4.8,4.8,0,0,0-1.1,3.36,5,5,0,0,0-3.27,2,5.33,5.33,0,0,0-.34,4.7,4,4,0,0,0-1.05,2.95A3.91,3.91,0,0,0,12,20.61c0,.29,0,.57,0,.86.07,2.77.14,5.64,4.8,11.35A11.59,11.59,0,0,1,11.57,27.5ZM34.44,13.34c-.72,3-2.8,3.59-5.71,3.59h-.46l0,.41v.17l0,.55.46.06C30.5,18.36,30.9,19.61,31,21a11.58,11.58,0,0,0-5.24.66,5.79,5.79,0,0,0-4,5,10.52,10.52,0,0,0,.4,4.16,5.24,5.24,0,0,0,.27.69,1.82,1.82,0,0,1,.27,1,2.37,2.37,0,0,1-.94,1.39c-.59-1.5-1.09-2.94-1.5-4.3a6.9,6.9,0,0,0,1.17-2.15l.15-.48-1.14-.37-.15.47a5.45,5.45,0,0,1-.45,1,25.64,25.64,0,0,1-.89-7.26,4.34,4.34,0,0,1,3.38-1.3h.5v-1.2h-.5a6,6,0,0,0-3.22.82,14.91,14.91,0,0,1,2.61-6.33,6.43,6.43,0,0,1,4.73.26l.47.18.42-1.12L26.8,12a9,9,0,0,0-4.18-.61,5.06,5.06,0,0,1,5.12-1.77l.48.13.31-1.13-.37-.11a6.14,6.14,0,0,0-2.75-.12,2.88,2.88,0,0,1,.52-1.51l.3-.39-.94-.74L25,6.09a4.11,4.11,0,0,0-.77,2.57,6,6,0,0,0-2.86,2.41l-.51.79a22.56,22.56,0,0,0-1.7,2.89,4.34,4.34,0,0,1-1.42-3.42l0-.5-1.19-.09,0,.49s-.22,3.11,2.13,4.64a15.12,15.12,0,0,0-1,4.57l0,.32v.14a23.27,23.27,0,0,0,.3,4.38A3.68,3.68,0,0,1,16.7,24l-.15-.47-1.14.39.16.46c0,.05.45,1.36,2.68,2.51a47.54,47.54,0,0,0,2.25,7.29,4.5,4.5,0,0,1-.92-.18l-.24-.09c-5.94-6.65-6-9.6-6.08-12.48,0-.38,0-.78,0-1.18l0-.33-.3-.16c-1.14-.6-1.76-1.31-1.85-2.11A2.87,2.87,0,0,1,12,15.4l.32-.28-.14-.38c-.6-1.67-.58-3,.08-4a4,4,0,0,1,2.92-1.56l.61,0,0-.61a3.94,3.94,0,0,1,.78-3,3.12,3.12,0,0,1,1.95-1l.49,0L19,4a2.66,2.66,0,0,1,1.35-2.26,2.91,2.91,0,0,1,2.54.33l.29.2.32-.16A2.66,2.66,0,0,1,26,1.84a2.51,2.51,0,0,1,1,2l0,.47.47.07C30,4.7,30.7,5.93,31,7.66l.05.35.33.12C31.79,8.28,35.33,9.69,34.44,13.34Z"/><path class="cls-1" d="M20.7,35.61a5.7,5.7,0,0,1-1.56-.24c-6.12-2-7.85-5.26-8.88-7.18l0-.1a5,5,0,0,1-1.73-.58,18.11,18.11,0,0,1-2.69-.76c-2.53-1-5-3-4.25-5.74a4,4,0,0,1,.33-.84,5.73,5.73,0,0,1-.81-1,4.16,4.16,0,0,1-.62-3.28,3.09,3.09,0,0,1,1.25-1.67,6.5,6.5,0,0,1-.86-1,3.92,3.92,0,0,1-.77-3,2.86,2.86,0,0,1,2.08-2h0l0,0,0-.27A4.54,4.54,0,0,1,4.62,3.32,4.07,4.07,0,0,1,7.21,3l.14-.2a3.12,3.12,0,0,1,3.78-.95,3.11,3.11,0,0,1,.55-.87A2.72,2.72,0,0,1,13.52,0h.14A4.74,4.74,0,0,1,17.8,2.76a3.6,3.6,0,0,1,2-2.34,4.32,4.32,0,0,1,3.51.2A3.73,3.73,0,0,1,26.71.54,3.65,3.65,0,0,1,28.36,3a4.87,4.87,0,0,1,4,3.93c1.24.59,4.53,2.57,3.51,6.76a5.5,5.5,0,0,1-4.28,4.45,5.92,5.92,0,0,1,.87,3.53v1l-1-.15a10.35,10.35,0,0,0-5.18.49c-3.8,1.39-3.37,5.16-2.78,7.28l0,.1a2.71,2.71,0,0,0,.18.46,3.29,3.29,0,0,1,.38,1.9l0,.12A3.37,3.37,0,0,1,20.7,35.61ZM6.48,3.45a3.68,3.68,0,0,0-1.61.39A3.94,3.94,0,0,0,2.73,7.9l.08.78-.25.06-.25.06A2.32,2.32,0,0,0,.62,10.39a3.36,3.36,0,0,0,.68,2.53A6.11,6.11,0,0,0,2.35,14l.33.28-.38.2A2.63,2.63,0,0,0,1,16.06a3.59,3.59,0,0,0,.57,2.81,4.68,4.68,0,0,0,.88,1l.18.17-.2.31a2.91,2.91,0,0,0-.32.77c-.63,2.39,1.6,4.18,3.9,5.06A17.28,17.28,0,0,0,8.64,27l.09,0a4.86,4.86,0,0,0,1.7.55l.14,0,.2.35c1,1.85,2.65,4.94,8.54,6.91,2.13.6,3.59-.1,4.2-2.07v-.08a2.66,2.66,0,0,0-.33-1.56,4.66,4.66,0,0,1-.22-.56l0-.08c-.65-2.32-1.1-6.43,3.14-8A11,11,0,0,1,31.54,22l.36.06v-.37a4.86,4.86,0,0,0-1-3.51l-.39-.39.54-.1a5,5,0,0,0,4.32-4.12C36.28,9.63,33,7.85,32,7.4l-.13-.06,0-.15a4.34,4.34,0,0,0-3.78-3.67l-.19,0,0-.2A3.19,3.19,0,0,0,26.43,1a3.27,3.27,0,0,0-3,.16l-.13.06-.12-.07A3.89,3.89,0,0,0,20,.94,3.3,3.3,0,0,0,18.2,3.48l0,.19-.51.11-.1-.22c-.38-.9-1.53-3-3.89-3h-.13a2.15,2.15,0,0,0-1.42.76,2.42,2.42,0,0,0-.53.93l-.09.3-.29-.11a2.69,2.69,0,0,0-3.39.65,4,4,0,0,0-.22.34l-.12.19-.22-.07A2.52,2.52,0,0,0,6.48,3.45Zm14.45,31-.45,0a4.86,4.86,0,0,1-1-.19l-.34-.11-.05-.06C13.11,27.33,13,24.31,13,21.4c0-.38,0-.78-.05-1.18v-.17L12.77,20a3.26,3.26,0,0,1-2-2.33,3.13,3.13,0,0,1,1.05-2.46L12,15l-.07-.2c-.63-1.76-.6-3.19.11-4.25A4.24,4.24,0,0,1,15.15,8.9l.32,0,0-.31a4.26,4.26,0,0,1,.84-3.25,3.37,3.37,0,0,1,2.15-1.05l.26,0,0-.25a2.91,2.91,0,0,1,1.53-2.48,3.2,3.2,0,0,1,2.81.35l.16.11.16-.08a2.9,2.9,0,0,1,2.73-.31,2.76,2.76,0,0,1,1.14,2.2l0,.24.25,0C30.35,4.47,31,6,31.28,7.61l0,.19.17.06c.43.16,4.18,1.66,3.24,5.55h0c-.81,3.34-3.36,3.8-6,3.8h-.19l0,.6.19,0c2.14.28,2.5,1.83,2.57,3.14l0,.33-.33,0a11.43,11.43,0,0,0-5.12.65A5.54,5.54,0,0,0,22,26.69a10.31,10.31,0,0,0,.4,4,3.37,3.37,0,0,0,.24.61,2.3,2.3,0,0,1,.31,1.19,2.72,2.72,0,0,1-1.08,1.6l-.29.18L21.42,34c-.59-1.49-1.09-2.94-1.5-4.32l0-.14.09-.12a6.73,6.73,0,0,0,1.12-2.06l.06-.2-.59-.2-.07.2A6,6,0,0,1,20,28.22l-.35.62-.17-.69a25.52,25.52,0,0,1-.91-7.34v-.1l.06-.08a4.64,4.64,0,0,1,3.6-1.4h.21v-.62h-.21a5.88,5.88,0,0,0-3.07.77l-.52.32.09-.6a15.3,15.3,0,0,1,2.65-6.45l.05-.07.07,0a6.72,6.72,0,0,1,4.95.26l.2.07.22-.59-.2-.07a8.65,8.65,0,0,0-4.05-.59L22,11.7l.4-.53a5.31,5.31,0,0,1,5.42-1.88l.21.06.16-.58L28,8.7a6.23,6.23,0,0,0-2.55-.08l-.34.06V8.33a3.29,3.29,0,0,1,.58-1.67l.13-.17-.49-.39-.13.17a3.74,3.74,0,0,0-.71,2.38v.21l-.19.07a5.49,5.49,0,0,0-2.72,2.29l-.53.8a23.39,23.39,0,0,0-1.67,2.85l-.15.31L19,15a4.55,4.55,0,0,1-1.53-3.65l0-.23-.63,0,0,.21s-.18,3,2,4.37l.2.12-.09.22A15.14,15.14,0,0,0,18,20.46l0,.33v.1a22.87,22.87,0,0,0,.29,4.35l.1.66-.55-.38a4,4,0,0,1-1.36-1.44l-.07-.23-.6.2.07.19a4.81,4.81,0,0,0,2.54,2.35l.13.06,0,.14A46.62,46.62,0,0,0,20.77,34Zm-1.43-.82.17.06.39.09A46.86,46.86,0,0,1,18,27a5.24,5.24,0,0,1-2.71-2.62L15,23.7l1.69-.58.25.76h0a2.84,2.84,0,0,0,.6.73,22.9,22.9,0,0,1-.19-3.72v-.12l0-.35a15.57,15.57,0,0,1,.9-4.44,5.73,5.73,0,0,1-2.07-4.77l.07-.78,1.76.14-.06.79a4.11,4.11,0,0,0,1,2.93,23.87,23.87,0,0,1,1.54-2.57l.52-.8a6.06,6.06,0,0,1,2.81-2.44,4.33,4.33,0,0,1,.84-2.57l.48-.61,1.39,1.09L26.15,7a3,3,0,0,0-.42,1,6.3,6.3,0,0,1,2.52.19l.63.19-.46,1.67-.75-.2A4.8,4.8,0,0,0,23.28,11a9.72,9.72,0,0,1,3.62.67l.73.28L27,13.62l-.73-.28a6.28,6.28,0,0,0-4.44-.3,14.72,14.72,0,0,0-2.42,5.57A6.76,6.76,0,0,1,22.26,18H23v1.77h-.78a4.12,4.12,0,0,0-3.1,1.13,24.37,24.37,0,0,0,.7,6.28L20,27l.24-.74,1.21.4h0a6.07,6.07,0,0,1,4.24-5.23,11.86,11.86,0,0,1,5-.7c-.14-1.45-.75-2.12-2-2.28l-.73-.1L28,16.64h.73c2.85,0,4.75-.56,5.43-3.37h0C35,9.86,31.67,8.54,31.28,8.4l-.48-.18-.08-.51c-.29-1.65-.94-2.75-3.27-3.07l-.7-.11-.05-.7a2.28,2.28,0,0,0-.85-1.75,2.44,2.44,0,0,0-2.19.33l-.47.23-.43-.3A2.7,2.7,0,0,0,20.49,2a2.41,2.41,0,0,0-1.18,2.05l-.12.71-.72,0a2.77,2.77,0,0,0-1.75.86A3.72,3.72,0,0,0,16,8.52l.07.9-.91.05a3.68,3.68,0,0,0-2.7,1.44,4.18,4.18,0,0,0-.05,3.74l.21.56-.46.4a2.66,2.66,0,0,0-.85,2c.08.7.65,1.34,1.71,1.89l.43.24,0,.49c0,.41,0,.81.05,1.2C13.61,24.19,13.68,27.09,19.5,33.63Zm1-4c.36,1.21.8,2.47,1.3,3.77a2.42,2.42,0,0,0,.55-1,1.86,1.86,0,0,0-.26-.79,5,5,0,0,1-.28-.74,12.72,12.72,0,0,1-.46-2.65A7.28,7.28,0,0,1,20.51,29.65ZM18,33.72l-1.23-.65a11.88,11.88,0,0,1-5.41-5.43l-.16-.31-.11-.19L11,27l-.16,0a3.32,3.32,0,0,1-2.61-1.29,3.2,3.2,0,0,1-.33-2.55l0-.18-.15-.13a7.23,7.23,0,0,1-2-2.52,3.57,3.57,0,0,1,1.53-4.71l.26-.17-.17-.26a5.72,5.72,0,0,1-1.09-4.4A4,4,0,0,1,8,8.43l.25-.14-.09-.24c-.7-1.92-.63-3.46.21-4.58a1.69,1.69,0,0,1,1.42-.71,4.22,4.22,0,0,1,1.92.59l.52.29-.06-.59a1.71,1.71,0,0,1,.45-1.3,1.65,1.65,0,0,1,1-.55h.1A3.82,3.82,0,0,1,17,3.75l.11.24-.23.12a3.88,3.88,0,0,0-1,.79,4.56,4.56,0,0,0-1,3.16V8.3l-.23,0a4.73,4.73,0,0,0-3.08,1.9,5,5,0,0,0-.3,4.45l.05.15-.11.12a3.75,3.75,0,0,0-1,2.74,3.64,3.64,0,0,0,2,2.65l.14.08v.16c0,.29,0,.57,0,.86.06,2.72.13,5.54,4.73,11.18Zm-6.13-6.35a11.11,11.11,0,0,0,3.86,4.43c-3.79-5-3.85-7.71-3.91-10.33,0-.23,0-.46,0-.69a4.08,4.08,0,0,1-2.18-3,4.17,4.17,0,0,1,1-3.06A5.45,5.45,0,0,1,11,9.93a5.32,5.32,0,0,1,3.22-2.1A5,5,0,0,1,15.4,4.52a4.23,4.23,0,0,1,.92-.77,3.08,3.08,0,0,0-2.67-2h-.1a1.24,1.24,0,0,0-.55.37,1.09,1.09,0,0,0-.31.86l.15,1.66-1.46-.81a3.73,3.73,0,0,0-1.64-.52,1.16,1.16,0,0,0-1,.48c-.71,1-.75,2.32-.13,4l.26.69-.66.38a3.47,3.47,0,0,0-1.36,2,5.15,5.15,0,0,0,1,3.95l.49.74-.76.48a3,3,0,0,0-1.31,4,6.78,6.78,0,0,0,1.83,2.32l.42.36-.15.55a2.58,2.58,0,0,0,.25,2.06,2.8,2.8,0,0,0,2.19,1l.46.05.22.38h0ZM7.65,26.1l-.6-.18c-.29-.09-.57-.19-.84-.29-2-.78-4-2.32-3.52-4.31a2.3,2.3,0,0,1,.27-.6l.1-.16a.74.74,0,0,0,.21-.63c0-.15-.14-.26-.33-.42a2.11,2.11,0,0,1-.23-.19,4.4,4.4,0,0,1-.63-.78,3.12,3.12,0,0,1-.55-2.07,2,2,0,0,1,.78-1.24A1.84,1.84,0,0,1,3,14.91a1.18,1.18,0,0,1,.21,0,1.07,1.07,0,0,0,.23,0h0l.36-.49-.66-.47a5.66,5.66,0,0,1-1.35-1.32,2.93,2.93,0,0,1-.58-2.05c.13-.66.85-1,1.27-1.11a3.68,3.68,0,0,1,.73-.13l.2,0V8.74c0-.11,0-.29-.06-.8l0-.2A3.28,3.28,0,0,1,5.15,4.4,2.82,2.82,0,0,1,7,4.12l.28.08-.07.27a6,6,0,0,0,.21,3.37L7.43,8l-.15.13a4.56,4.56,0,0,0-1.57,2.46A6,6,0,0,0,6.6,15l.12.21-.19.16a4.18,4.18,0,0,0-1.31,5.17A7.84,7.84,0,0,0,7.08,23l.12.11,0,.15a3.94,3.94,0,0,0,.23,2.23ZM6.48,4.64a2.65,2.65,0,0,0-1.08.27A2.7,2.7,0,0,0,3.91,7.67l0,.21a5.81,5.81,0,0,1,0,.81l0,.25v.13l0,.71-.76.06a2.77,2.77,0,0,0-.6.11c-.19.05-.8.27-.88.68a2.38,2.38,0,0,0,.49,1.6,4.87,4.87,0,0,0,1.21,1.18l1.12.81-.16.23-.54.74a.81.81,0,0,1-.63.26l-.14,0a1.21,1.21,0,0,0-.49.22,1.36,1.36,0,0,0-.55.87,2.62,2.62,0,0,0,.47,1.69,3.92,3.92,0,0,0,.54.66l.19.16a1.22,1.22,0,0,1,.54.79,1.36,1.36,0,0,1-.3,1L3.45,21a1.43,1.43,0,0,0-.2.44C2.82,23.09,4.6,24.4,6.42,25.1h0l.25.09a4.77,4.77,0,0,1-.09-1.84A8.09,8.09,0,0,1,4.7,20.78,4.72,4.72,0,0,1,6,15.08a6.36,6.36,0,0,1-.82-4.61A5.11,5.11,0,0,1,6.77,7.83a6.86,6.86,0,0,1-.24-3.19Z"/></g></g></svg>