<svg xmlns="http://www.w3.org/2000/svg" viewBox="0 0 33.14 36.82"><defs><style>.cls-1{fill:#4c4948;}</style></defs><g id="圖層_2" data-name="圖層 2"><g id="圖層_1-2" data-name="圖層 1"><ellipse class="cls-1" cx="24.64" cy="9.23" rx="1.54" ry="0.46"/><path class="cls-1" d="M24.64,10c-.31,0-1.87,0-1.87-.78s1.56-.78,1.87-.78,1.86,0,1.86.78S25,10,24.64,10Zm-1.07-.78a4.12,4.12,0,0,0,2.13,0,4.12,4.12,0,0,0-2.13,0Z"/><path class="cls-1" d="M32.72,20.54c-.23-2.07-2.07-7.11-2.95-9.45.25-.14.52-.32.69-.43a6,6,0,0,0,1.42-1.14,3,3,0,0,0,.73-2,1.25,1.25,0,0,0-1.12-1.07A6.6,6.6,0,0,0,30,6.39l-1.21,0-.88,0-.18-.39a2.27,2.27,0,0,0-2.15-3.95A3.4,3.4,0,0,0,22,.37,3.34,3.34,0,0,0,19.28,3a3.68,3.68,0,0,0-1.1,0A3.3,3.3,0,0,0,16,4.4a3.37,3.37,0,0,0,.86,4.68,3.4,3.4,0,0,0,2.52.53,2.72,2.72,0,0,0,.49-.13v3.4c0,.39,0,.8,0,1.2v.13a2.18,2.18,0,0,1-.18,1.19,1.46,1.46,0,0,1-.64.49,5.83,5.83,0,0,1-2.39.34H10.77a11.61,11.61,0,0,1-3-.1,2.13,2.13,0,0,1-.92-.78,5.75,5.75,0,0,1-.5-.88,4.89,4.89,0,0,0-.92-1.41,2.93,2.93,0,0,0-1.62-.77A3,3,0,0,0,.66,14a3.58,3.58,0,0,0-.33,1.49,25.18,25.18,0,0,0,1.55,9.39A12.59,12.59,0,0,0,7.53,31.7l.51.23a13,13,0,0,0,.19,2.16,4.72,4.72,0,0,0,.47,1.42,1.75,1.75,0,0,0,1,.9,1.62,1.62,0,0,0,.85,0,2.53,2.53,0,0,0,1.7-1.83,9,9,0,0,0,.44-1.51l0-.16c.81.09,1.72.17,2.7.23A38.6,38.6,0,0,0,21.77,33l.89-.11c.29,1.43.94,3.49,2.23,3.6h.25l.24-.06a1.15,1.15,0,0,0,.4-.2c.81-.6,1.29-2.12,1.48-4.63l.56-.3a10,10,0,0,0,5-8A13.91,13.91,0,0,0,32.72,20.54Zm-4.2-13h.3l.87,0H30a5.8,5.8,0,0,1,1.26,0,.49.49,0,0,1,.17.06A1.69,1.69,0,0,1,31,8.78a5.24,5.24,0,0,1-1.2,1l-.44.26c-.11-.3-.25-.65-.26-.67-.25-.62-.48-1.19-.71-1.73Zm-8.63.64a2,2,0,0,1-.69.25h0a2.17,2.17,0,0,1-1.64-.36A2.19,2.19,0,0,1,17,5.05a2.16,2.16,0,0,1,1.42-.92,1.84,1.84,0,0,1,.41,0,2.16,2.16,0,0,1,.78.15l.79.3V3.69A2.21,2.21,0,0,1,24.7,3.1l.24.89.7-.6a1.09,1.09,0,0,1,.72-.28,1.12,1.12,0,0,1,1.12,1.12,1.15,1.15,0,0,1-.43.88,4.22,4.22,0,0,0-4.51-.78A4.36,4.36,0,0,0,19.89,8.22ZM11.55,32.84a9.44,9.44,0,0,1-.38,1.33c-.2.53-.45,1-.89,1.12a.47.47,0,0,1-.26,0A.65.65,0,0,1,9.71,35a3.73,3.73,0,0,1-.34-1.08,10.93,10.93,0,0,1-.17-1.57,20.63,20.63,0,0,0,2.36.46S11.55,32.82,11.55,32.84Zm13.5,2.49h0c-.33,0-.89-1.07-1.22-2.63a14,14,0,0,0,2.26-.59C25.79,34.57,25.24,35.17,25.05,35.33Zm6.57-12.08a8.81,8.81,0,0,1-4.38,7.05,13.56,13.56,0,0,1-5.6,1.54,35.26,35.26,0,0,1-6.16.15,29.65,29.65,0,0,1-6.35-.9V31H8.76a7,7,0,0,1-.7-.3A11.38,11.38,0,0,1,3,24.44a24.08,24.08,0,0,1-1.48-9,2.44,2.44,0,0,1,.22-1,1.86,1.86,0,0,1,2-1,1.83,1.83,0,0,1,1,.46A4,4,0,0,1,5.34,15a6.64,6.64,0,0,0,.61,1,3.77,3.77,0,0,0,.81.83A2.38,2.38,0,0,0,6,18.58a2.34,2.34,0,0,0,1.43,2.16,2.35,2.35,0,0,0,1.15,3.59A2.34,2.34,0,0,0,10.5,28c.55,0,1.1,0,1.64,0h.11c.51,0,1,0,1.54,0a14.4,14.4,0,0,0,4.34-.56,6.44,6.44,0,0,0,4.47-4.7l.08-.47-1.13-.21-.09.47a5.27,5.27,0,0,1-3.68,3.81,16.8,16.8,0,0,1-5.61.48H12l-1.42,0a1.19,1.19,0,1,1,0-2.38h3.25V23.3H9.37a1.19,1.19,0,0,1,0-2.38H13.8V19.77H8.38a1.19,1.19,0,1,1,0-2.38c.7.05,1.58,0,2.42,0h5.75a7.3,7.3,0,0,0,3-.45A2.6,2.6,0,0,0,20.68,16,3,3,0,0,0,21,14.17v-.11c0-.39,0-.79,0-1.17V8.31A3.2,3.2,0,0,1,23,5.39a2.92,2.92,0,0,1,3.45.8,7.3,7.3,0,0,1,.53,1c.12.32.26.64.39,1L28.51,11c.85,2.21,2.83,7.57,3.06,9.63A13.33,13.33,0,0,1,31.62,23.25Z"/><path class="cls-1" d="M25.17,36.82l-.3,0c-1.38-.12-2.09-1.94-2.46-3.56l-.61.07a39.15,39.15,0,0,1-6.41.16c-.86-.06-1.68-.13-2.43-.2a9.49,9.49,0,0,1-.42,1.43,2.88,2.88,0,0,1-1.93,2,2,2,0,0,1-1,0,2,2,0,0,1-1.17-1,5.08,5.08,0,0,1-.5-1.52,12.76,12.76,0,0,1-.2-2L7.38,32a12.87,12.87,0,0,1-5.8-7A25.56,25.56,0,0,1,0,15.46a3.85,3.85,0,0,1,.36-1.62A3.35,3.35,0,0,1,3.87,12a3.31,3.31,0,0,1,1.8.86,5.27,5.27,0,0,1,1,1.5,4.62,4.62,0,0,0,.47.82,1.79,1.79,0,0,0,.77.68,11.26,11.26,0,0,0,2.86.08h5.91a5.59,5.59,0,0,0,2.26-.31,1.13,1.13,0,0,0,.51-.38,1.9,1.9,0,0,0,.13-1v-.13c0-.41,0-.82,0-1.21v-3l-.11,0a3.6,3.6,0,0,1-2.76-.58,3.68,3.68,0,0,1-.95-5.13,3.67,3.67,0,0,1,2.37-1.53A3.53,3.53,0,0,1,19,2.63,3.64,3.64,0,0,1,21.9.06a3.72,3.72,0,0,1,3.79,1.67,2.59,2.59,0,0,1,2.44,4.39l.62,0,1.21,0a7.2,7.2,0,0,1,1.58.06,1.56,1.56,0,0,1,1.38,1.36,3.15,3.15,0,0,1-.8,2.23,6.31,6.31,0,0,1-1.48,1.21l-.48.3c1,2.71,2.65,7.27,2.88,9.27h0a14.62,14.62,0,0,1,.05,2.87A10.27,10.27,0,0,1,28,31.57l-.41.23c-.22,2.54-.72,4-1.6,4.68a1.55,1.55,0,0,1-.49.26Zm-2.25-4.29.06.29c.42,2.06,1.12,3.27,1.94,3.34h.19l.2-.05a1,1,0,0,0,.28-.15c.72-.53,1.17-2,1.36-4.4v-.18l.16-.08c.19-.09.37-.19.54-.29a9.67,9.67,0,0,0,4.8-7.7,14.21,14.21,0,0,0-.06-2.75c-.23-2.07-2.12-7.24-2.93-9.36L29.38,11l.23-.13.68-.43a5.68,5.68,0,0,0,1.34-1.08,2.57,2.57,0,0,0,.66-1.76.94.94,0,0,0-.86-.79,6.5,6.5,0,0,0-1.45,0l-1.21,0-.88,0h-.21l-.09-.19-.18-.37L27.29,6l.22-.16a1.95,1.95,0,0,0-1.15-3.52,1.89,1.89,0,0,0-.7.13l-.26.1-.14-.25A3.11,3.11,0,0,0,22,.68,3,3,0,0,0,19.59,3l-.06.29-.3,0a3.05,3.05,0,0,0-1,0,3,3,0,0,0-1.95,1.27,3.07,3.07,0,0,0-.49,2.28A3.06,3.06,0,0,0,19.34,9.3a3.17,3.17,0,0,0,.44-.12L20.21,9v3.85c0,.39,0,.8,0,1.19v.13A2.45,2.45,0,0,1,20,15.57a1.76,1.76,0,0,1-.79.61,6.1,6.1,0,0,1-2.51.37l-5.91,0a13.34,13.34,0,0,1-3.1-.12,2.48,2.48,0,0,1-1-.89,5.82,5.82,0,0,1-.53-.93,5,5,0,0,0-.86-1.32,2.66,2.66,0,0,0-1.45-.69A2.7,2.7,0,0,0,1,14.11a3.31,3.31,0,0,0-.3,1.36,25.21,25.21,0,0,0,1.52,9.27,12.28,12.28,0,0,0,5.51,6.67,3.61,3.61,0,0,0,.48.22l.19.08v.21A12.4,12.4,0,0,0,8.55,34,4.19,4.19,0,0,0,9,35.36a1.42,1.42,0,0,0,.8.74,1.33,1.33,0,0,0,.69,0c.82-.19,1.19-.9,1.48-1.64A9.69,9.69,0,0,0,12.36,33l.09-.45.29,0c.82.09,1.72.17,2.69.23a37.79,37.79,0,0,0,6.3-.16l.89-.1Zm2.24,3.11H25c-.9,0-1.47-2.58-1.53-2.87l-.07-.32.33-.06a14,14,0,0,0,2.2-.58l.48-.17-.06.51c-.24,2.3-.75,3.13-1.13,3.43Zm-1-2.69a5.42,5.42,0,0,0,.79,2,5.49,5.49,0,0,0,.7-2.36C25.22,32.72,24.72,32.84,24.19,33ZM10.12,35.64a.63.63,0,0,1-.19,0,1,1,0,0,1-.5-.49,4.3,4.3,0,0,1-.38-1.19,11.38,11.38,0,0,1-.17-1.61v-.43l.42.11a21.61,21.61,0,0,0,2.32.46l.33,0-.08.41a9.26,9.26,0,0,1-.39,1.38c-.24.6-.54,1.18-1.12,1.32A.91.91,0,0,1,10.12,35.64Zm-.57-2.92a8.52,8.52,0,0,0,.13,1.1,3.53,3.53,0,0,0,.31,1,.62.62,0,0,0,.14.19l.07,0c.3-.06.51-.5.67-.92a7.28,7.28,0,0,0,.31-1C10.58,32.94,10,32.84,9.55,32.72Zm8.13-.34c-.74,0-1.48,0-2.22-.07A30.21,30.21,0,0,1,9,31.4l-.19-.06v-.05l-.18,0A6.14,6.14,0,0,1,7.92,31a11.72,11.72,0,0,1-5.26-6.41,24.52,24.52,0,0,1-1.5-9.07,3,3,0,0,1,.25-1.15,2.18,2.18,0,0,1,2.3-1.19,2.06,2.06,0,0,1,1.16.54,4.49,4.49,0,0,1,.76,1.19,6.26,6.26,0,0,0,.57,1,3.68,3.68,0,0,0,.75.77l.31.22L7,17.12a2.09,2.09,0,0,0-.62,1.46A2,2,0,0,0,7.6,20.45L8,20.6l-.24.33a2,2,0,0,0-.38,1.18A2,2,0,0,0,8.73,24l.39.13-.24.35a2,2,0,0,0-.35,1.14,2,2,0,0,0,2,2c.53,0,1.1,0,1.64,0h.1c.51,0,1,0,1.54,0A14,14,0,0,0,18,27.19a6.1,6.1,0,0,0,4.25-4.46l0-.15-.51-.1,0,.16a5.55,5.55,0,0,1-3.89,4.05,16.75,16.75,0,0,1-5.72.49h-.29l-1.31,0a1.51,1.51,0,1,1,0-3h2.93v-.51H9.37a1.51,1.51,0,0,1,0-3h4.11v-.51H8.38a1.51,1.51,0,1,1,0-3c.73.05,1.63,0,2.42,0h5.75a7.09,7.09,0,0,0,2.85-.42,2.21,2.21,0,0,0,1-.8,2.72,2.72,0,0,0,.31-1.67v-.11c0-.4,0-.8,0-1.18V8.31A3.51,3.51,0,0,1,22.86,5.1,3.21,3.21,0,0,1,26.7,6a7.07,7.07,0,0,1,.56,1.1q.18.46.36.9l1.19,2.9c.85,2.23,2.84,7.62,3.08,9.72a13.92,13.92,0,0,1,.05,2.65h0a9.14,9.14,0,0,1-4.54,7.3,13.92,13.92,0,0,1-5.72,1.58A35.75,35.75,0,0,1,17.68,32.38ZM9.42,30.84a30.78,30.78,0,0,0,6.08.83,35.69,35.69,0,0,0,6.11-.14A13.4,13.4,0,0,0,27.08,30a8.54,8.54,0,0,0,4.23-6.79,14.4,14.4,0,0,0,0-2.53c-.24-2-2.21-7.36-3-9.56L27.06,8.32c-.15-.36-.27-.66-.39-1a6.88,6.88,0,0,0-.49-1,2.61,2.61,0,0,0-3.07-.69,2.88,2.88,0,0,0-1.75,2.63v4.58c0,.38,0,.78,0,1.16v.11a3.46,3.46,0,0,1-.41,2,2.85,2.85,0,0,1-1.28,1,7.51,7.51,0,0,1-3.11.48H10.82c-.8,0-1.71,0-2.45,0a.87.87,0,0,0,0,1.74h5.74v1.79H9.37a.87.87,0,0,0,0,1.74h4.76v1.79H10.56a.87.87,0,1,0,0,1.74l1.32,0h.3a16.59,16.59,0,0,0,5.5-.46,5,5,0,0,0,3.47-3.57l.15-.78,1.75.33-.14.78a6.75,6.75,0,0,1-4.68,4.94,14.54,14.54,0,0,1-4.44.58c-.52,0-1,0-1.55,0h-.11l-1.62,0a2.69,2.69,0,0,1-2.62-2.66,2.75,2.75,0,0,1,.27-1.17A2.65,2.65,0,0,1,7,20.87a2.66,2.66,0,0,1-.72-3.94,4.57,4.57,0,0,1-.61-.68,7.17,7.17,0,0,1-.63-1.08,4,4,0,0,0-.63-1,1.45,1.45,0,0,0-.81-.37A1.53,1.53,0,0,0,2,14.6a2.21,2.21,0,0,0-.19.9,24.09,24.09,0,0,0,1.45,8.83,11.12,11.12,0,0,0,5,6.06,4,4,0,0,0,.61.26h.57ZM29.19,10.46l-.13-.35-.26-.66c-.25-.62-.49-1.19-.72-1.73l-.18-.43,1.09,0,.69,0H30a5.88,5.88,0,0,1,1.33,0,.77.77,0,0,1,.27.09l.14.08,0,.16A2,2,0,0,1,31.24,9,5.5,5.5,0,0,1,30,10l-.44.28Zm.2-1.26.12.32.1-.06a5,5,0,0,0,1.14-.89,1.8,1.8,0,0,0,.37-.69,5.67,5.67,0,0,0-1.09,0H29.7l-.69,0h-.16c.18.42.35.85.54,1.31Zm-10.6-.37a2.45,2.45,0,0,1-1.43-.44,2.52,2.52,0,0,1,1-4.57,2.42,2.42,0,0,1,1.36.12l.35.13V3.7A2.53,2.53,0,0,1,25,3l.11.39.31-.27a1.43,1.43,0,1,1,1.81,2.22L27,5.54l-.2-.21a3.34,3.34,0,0,0-1.85-1l-.21.18-.06-.22a4.3,4.3,0,0,0-2,.28,4.05,4.05,0,0,0-2.45,3.6V8.4l-.16.09a2.63,2.63,0,0,1-.78.3A4.23,4.23,0,0,1,18.79,8.83Zm0-4.42a2,2,0,0,0-.35,0,1.93,1.93,0,0,0-1.22.79,1.89,1.89,0,0,0,.49,2.63,1.81,1.81,0,0,0,1.4.3A2.06,2.06,0,0,0,19.58,8a4.7,4.7,0,0,1,2.84-4,4.84,4.84,0,0,1,2.11-.34l-.14-.51a1.89,1.89,0,0,0-3.71.51V5l-1.23-.46A1.69,1.69,0,0,0,18.8,4.41Zm6.76-.54A3.89,3.89,0,0,1,27,4.66a.83.83,0,0,0,.13-.43.8.8,0,0,0-.8-.8.74.74,0,0,0-.51.2Z"/></g></g></svg>