<svg xmlns="http://www.w3.org/2000/svg" viewBox="0 0 37.06 33.41"><defs><style>.cls-1{fill:#4c4948;}</style></defs><g id="圖層_2" data-name="圖層 2"><g id="圖層_1-2" data-name="圖層 1"><path class="cls-1" d="M34.59,18.24,31.3,9.45H5.76L2.47,18.24a3.25,3.25,0,0,0,0,6.31l3.29,8.86H31.3l3.29-8.86a3.25,3.25,0,0,0,0-6.31Zm-12-6.62L21.7,13.8H15.36l-.87-2.18Zm-15.3,0h4.88L13.89,16h9.28l1.74-4.35h4.88l2.44,6.52H4.82ZM29.79,31.24H7.27L4.82,24.65H32.24Zm4-8.76H3.26a1.09,1.09,0,1,1,0-2.17H33.8a1.09,1.09,0,1,1,0,2.17Z"/><path class="cls-1" d="M15.27,4a3.81,3.81,0,0,1,.78-2.5v0L14.5,0a5.78,5.78,0,0,0-1.4,4,3.82,3.82,0,0,1-.78,2.51v0l1.54,1.54a5.8,5.8,0,0,0,1.4-4Z"/><path class="cls-1" d="M19.61,4a3.81,3.81,0,0,1,.78-2.5v0L18.85,0a5.72,5.72,0,0,0-1.41,4,3.82,3.82,0,0,1-.78,2.51v0l1.54,1.54a5.8,5.8,0,0,0,1.4-4Z"/><path class="cls-1" d="M24,4a3.74,3.74,0,0,1,.78-2.5l0,0L23.19,0a5.78,5.78,0,0,0-1.4,4A3.82,3.82,0,0,1,21,6.53v0l1.53,1.54A5.73,5.73,0,0,0,24,4Z"/></g></g></svg>