<svg xmlns="http://www.w3.org/2000/svg" viewBox="0 0 1165.19 62.71"><defs><style>.cls-1{fill:#fff;}</style></defs><g id="圖層_2" data-name="圖層 2"><g id="圖層_1-2" data-name="圖層 1"><path class="cls-1" d="M17,62.71a59.41,59.41,0,0,0,17-2.54,134.49,134.49,0,0,0,15.44-5.86c9.61-4.12,18.68-8,30.45-8s20.83,3.88,30.44,8a134.49,134.49,0,0,0,15.44,5.86,58,58,0,0,0,33.94,0,133.79,133.79,0,0,0,15.44-5.86c9.61-4.12,18.69-8,30.45-8s20.83,3.88,30.44,8a135.2,135.2,0,0,0,15.44,5.86,59.41,59.41,0,0,0,17,2.54,59.53,59.53,0,0,0,17-2.54,134.33,134.33,0,0,0,15.43-5.86c9.61-4.12,18.69-8,30.45-8s20.83,3.88,30.44,8a138,138,0,0,0,15.38,5.85h0A63.5,63.5,0,0,0,384.85,62l.27,0c.6.1,1.2.18,1.8.26l.42,0,1.75.18.49.05c.61,0,1.23.08,1.85.11l.4,0c.75,0,1.51.05,2.26.05h0c.76,0,1.51,0,2.27-.05l.4,0c.62,0,1.23-.06,1.85-.11l.49-.05q.87-.07,1.74-.18l.43,0c.6-.08,1.2-.16,1.79-.26l.28-.05a61.09,61.09,0,0,0,7.75-1.77h0a137.1,137.1,0,0,0,15.37-5.85c9.61-4.12,18.69-8,30.45-8s20.83,3.88,30.44,8a135.2,135.2,0,0,0,15.44,5.86,58,58,0,0,0,33.94,0,133.79,133.79,0,0,0,15.44-5.86c9.61-4.12,18.69-8,30.45-8s20.83,3.88,30.44,8a135.2,135.2,0,0,0,15.44,5.86,58,58,0,0,0,34,0,135.2,135.2,0,0,0,15.44-5.86c9.6-4.12,18.68-8,30.44-8s20.84,3.88,30.44,8a139.38,139.38,0,0,0,15.26,5.81v.05a59.56,59.56,0,0,0,17,2.54h.17a59.56,59.56,0,0,0,17-2.54l0-.05a137.85,137.85,0,0,0,15.26-5.81c9.61-4.12,18.68-8,30.44-8s20.84,3.88,30.45,8a133.79,133.79,0,0,0,15.44,5.86,58,58,0,0,0,33.94,0,134.49,134.49,0,0,0,15.44-5.86c9.61-4.12,18.68-8,30.44-8s20.84,3.88,30.45,8a134.49,134.49,0,0,0,15.44,5.86,58,58,0,0,0,33.94,0,134.49,134.49,0,0,0,15.44-5.86c9.61-4.12,18.69-8,30.45-8s20.83,3.88,30.44,8a135.2,135.2,0,0,0,15.44,5.86,59.41,59.41,0,0,0,17,2.54,59.56,59.56,0,0,0,17-2.54V0H0V60.17A59.56,59.56,0,0,0,17,62.71Z"/></g></g></svg>